<?xml version="1.0" encoding="utf-8" standalone="no"?>
<!DOCTYPE svg PUBLIC "-//W3C//DTD SVG 1.1//EN"
  "http://www.w3.org/Graphics/SVG/1.1/DTD/svg11.dtd">
<!-- Created with matplotlib (https://matplotlib.org/) -->
<svg height="345.6pt" version="1.1" viewBox="0 0 460.8 345.6" width="460.8pt" xmlns="http://www.w3.org/2000/svg" xmlns:xlink="http://www.w3.org/1999/xlink">
 <defs>
  <style type="text/css">
*{stroke-linecap:butt;stroke-linejoin:round;white-space:pre;}
  </style>
 </defs>
 <g id="figure_1">
  <g id="patch_1">
   <path d="M 0 345.6 
L 460.8 345.6 
L 460.8 0 
L 0 0 
z
" style="fill:#ffffff;"/>
  </g>
  <g id="axes_1">
   <g id="patch_2">
    <path d="M 57.6 307.584 
L 414.72 307.584 
L 414.72 41.472 
L 57.6 41.472 
z
" style="fill:#ffffff;"/>
   </g>
   <g id="matplotlib.axis_1">
    <g id="xtick_1">
     <g id="line2d_1">
      <path clip-path="url(#pd00c9fc7cc)" d="M 73.832727 307.584 
L 73.832727 41.472 
" style="fill:none;stroke:#b0b0b0;stroke-linecap:square;stroke-width:0.8;"/>
     </g>
     <g id="line2d_2">
      <defs>
       <path d="M 0 0 
L 0 3.5 
" id="m4b5774eafb" style="stroke:#000000;stroke-width:0.8;"/>
      </defs>
      <g>
       <use style="stroke:#000000;stroke-width:0.8;" x="73.832727" xlink:href="#m4b5774eafb" y="307.584"/>
      </g>
     </g>
     <g id="text_1">
      <!-- 0 -->
      <defs>
       <path d="M 31.78125 66.40625 
Q 24.171875 66.40625 20.328125 58.90625 
Q 16.5 51.421875 16.5 36.375 
Q 16.5 21.390625 20.328125 13.890625 
Q 24.171875 6.390625 31.78125 6.390625 
Q 39.453125 6.390625 43.28125 13.890625 
Q 47.125 21.390625 47.125 36.375 
Q 47.125 51.421875 43.28125 58.90625 
Q 39.453125 66.40625 31.78125 66.40625 
z
M 31.78125 74.21875 
Q 44.046875 74.21875 50.515625 64.515625 
Q 56.984375 54.828125 56.984375 36.375 
Q 56.984375 17.96875 50.515625 8.265625 
Q 44.046875 -1.421875 31.78125 -1.421875 
Q 19.53125 -1.421875 13.0625 8.265625 
Q 6.59375 17.96875 6.59375 36.375 
Q 6.59375 54.828125 13.0625 64.515625 
Q 19.53125 74.21875 31.78125 74.21875 
z
" id="DejaVuSans-48"/>
      </defs>
      <g transform="translate(70.651477 322.182437)scale(0.1 -0.1)">
       <use xlink:href="#DejaVuSans-48"/>
      </g>
     </g>
    </g>
    <g id="xtick_2">
     <g id="line2d_3">
      <path clip-path="url(#pd00c9fc7cc)" d="M 128.122785 307.584 
L 128.122785 41.472 
" style="fill:none;stroke:#b0b0b0;stroke-linecap:square;stroke-width:0.8;"/>
     </g>
     <g id="line2d_4">
      <g>
       <use style="stroke:#000000;stroke-width:0.8;" x="128.122785" xlink:href="#m4b5774eafb" y="307.584"/>
      </g>
     </g>
     <g id="text_2">
      <!-- 50 -->
      <defs>
       <path d="M 10.796875 72.90625 
L 49.515625 72.90625 
L 49.515625 64.59375 
L 19.828125 64.59375 
L 19.828125 46.734375 
Q 21.96875 47.46875 24.109375 47.828125 
Q 26.265625 48.1875 28.421875 48.1875 
Q 40.625 48.1875 47.75 41.5 
Q 54.890625 34.8125 54.890625 23.390625 
Q 54.890625 11.625 47.5625 5.09375 
Q 40.234375 -1.421875 26.90625 -1.421875 
Q 22.3125 -1.421875 17.546875 -0.640625 
Q 12.796875 0.140625 7.71875 1.703125 
L 7.71875 11.625 
Q 12.109375 9.234375 16.796875 8.0625 
Q 21.484375 6.890625 26.703125 6.890625 
Q 35.15625 6.890625 40.078125 11.328125 
Q 45.015625 15.765625 45.015625 23.390625 
Q 45.015625 31 40.078125 35.4375 
Q 35.15625 39.890625 26.703125 39.890625 
Q 22.75 39.890625 18.8125 39.015625 
Q 14.890625 38.140625 10.796875 36.28125 
z
" id="DejaVuSans-53"/>
      </defs>
      <g transform="translate(121.760285 322.182437)scale(0.1 -0.1)">
       <use xlink:href="#DejaVuSans-53"/>
       <use x="63.623047" xlink:href="#DejaVuSans-48"/>
      </g>
     </g>
    </g>
    <g id="xtick_3">
     <g id="line2d_5">
      <path clip-path="url(#pd00c9fc7cc)" d="M 182.412843 307.584 
L 182.412843 41.472 
" style="fill:none;stroke:#b0b0b0;stroke-linecap:square;stroke-width:0.8;"/>
     </g>
     <g id="line2d_6">
      <g>
       <use style="stroke:#000000;stroke-width:0.8;" x="182.412843" xlink:href="#m4b5774eafb" y="307.584"/>
      </g>
     </g>
     <g id="text_3">
      <!-- 100 -->
      <defs>
       <path d="M 12.40625 8.296875 
L 28.515625 8.296875 
L 28.515625 63.921875 
L 10.984375 60.40625 
L 10.984375 69.390625 
L 28.421875 72.90625 
L 38.28125 72.90625 
L 38.28125 8.296875 
L 54.390625 8.296875 
L 54.390625 0 
L 12.40625 0 
z
" id="DejaVuSans-49"/>
      </defs>
      <g transform="translate(172.869093 322.182437)scale(0.1 -0.1)">
       <use xlink:href="#DejaVuSans-49"/>
       <use x="63.623047" xlink:href="#DejaVuSans-48"/>
       <use x="127.246094" xlink:href="#DejaVuSans-48"/>
      </g>
     </g>
    </g>
    <g id="xtick_4">
     <g id="line2d_7">
      <path clip-path="url(#pd00c9fc7cc)" d="M 236.702901 307.584 
L 236.702901 41.472 
" style="fill:none;stroke:#b0b0b0;stroke-linecap:square;stroke-width:0.8;"/>
     </g>
     <g id="line2d_8">
      <g>
       <use style="stroke:#000000;stroke-width:0.8;" x="236.702901" xlink:href="#m4b5774eafb" y="307.584"/>
      </g>
     </g>
     <g id="text_4">
      <!-- 150 -->
      <g transform="translate(227.159151 322.182437)scale(0.1 -0.1)">
       <use xlink:href="#DejaVuSans-49"/>
       <use x="63.623047" xlink:href="#DejaVuSans-53"/>
       <use x="127.246094" xlink:href="#DejaVuSans-48"/>
      </g>
     </g>
    </g>
    <g id="xtick_5">
     <g id="line2d_9">
      <path clip-path="url(#pd00c9fc7cc)" d="M 290.992958 307.584 
L 290.992958 41.472 
" style="fill:none;stroke:#b0b0b0;stroke-linecap:square;stroke-width:0.8;"/>
     </g>
     <g id="line2d_10">
      <g>
       <use style="stroke:#000000;stroke-width:0.8;" x="290.992958" xlink:href="#m4b5774eafb" y="307.584"/>
      </g>
     </g>
     <g id="text_5">
      <!-- 200 -->
      <defs>
       <path d="M 19.1875 8.296875 
L 53.609375 8.296875 
L 53.609375 0 
L 7.328125 0 
L 7.328125 8.296875 
Q 12.9375 14.109375 22.625 23.890625 
Q 32.328125 33.6875 34.8125 36.53125 
Q 39.546875 41.84375 41.421875 45.53125 
Q 43.3125 49.21875 43.3125 52.78125 
Q 43.3125 58.59375 39.234375 62.25 
Q 35.15625 65.921875 28.609375 65.921875 
Q 23.96875 65.921875 18.8125 64.3125 
Q 13.671875 62.703125 7.8125 59.421875 
L 7.8125 69.390625 
Q 13.765625 71.78125 18.9375 73 
Q 24.125 74.21875 28.421875 74.21875 
Q 39.75 74.21875 46.484375 68.546875 
Q 53.21875 62.890625 53.21875 53.421875 
Q 53.21875 48.921875 51.53125 44.890625 
Q 49.859375 40.875 45.40625 35.40625 
Q 44.1875 33.984375 37.640625 27.21875 
Q 31.109375 20.453125 19.1875 8.296875 
z
" id="DejaVuSans-50"/>
      </defs>
      <g transform="translate(281.449208 322.182437)scale(0.1 -0.1)">
       <use xlink:href="#DejaVuSans-50"/>
       <use x="63.623047" xlink:href="#DejaVuSans-48"/>
       <use x="127.246094" xlink:href="#DejaVuSans-48"/>
      </g>
     </g>
    </g>
    <g id="xtick_6">
     <g id="line2d_11">
      <path clip-path="url(#pd00c9fc7cc)" d="M 345.283016 307.584 
L 345.283016 41.472 
" style="fill:none;stroke:#b0b0b0;stroke-linecap:square;stroke-width:0.8;"/>
     </g>
     <g id="line2d_12">
      <g>
       <use style="stroke:#000000;stroke-width:0.8;" x="345.283016" xlink:href="#m4b5774eafb" y="307.584"/>
      </g>
     </g>
     <g id="text_6">
      <!-- 250 -->
      <g transform="translate(335.739266 322.182437)scale(0.1 -0.1)">
       <use xlink:href="#DejaVuSans-50"/>
       <use x="63.623047" xlink:href="#DejaVuSans-53"/>
       <use x="127.246094" xlink:href="#DejaVuSans-48"/>
      </g>
     </g>
    </g>
    <g id="xtick_7">
     <g id="line2d_13">
      <path clip-path="url(#pd00c9fc7cc)" d="M 399.573074 307.584 
L 399.573074 41.472 
" style="fill:none;stroke:#b0b0b0;stroke-linecap:square;stroke-width:0.8;"/>
     </g>
     <g id="line2d_14">
      <g>
       <use style="stroke:#000000;stroke-width:0.8;" x="399.573074" xlink:href="#m4b5774eafb" y="307.584"/>
      </g>
     </g>
     <g id="text_7">
      <!-- 300 -->
      <defs>
       <path d="M 40.578125 39.3125 
Q 47.65625 37.796875 51.625 33 
Q 55.609375 28.21875 55.609375 21.1875 
Q 55.609375 10.40625 48.1875 4.484375 
Q 40.765625 -1.421875 27.09375 -1.421875 
Q 22.515625 -1.421875 17.65625 -0.515625 
Q 12.796875 0.390625 7.625 2.203125 
L 7.625 11.71875 
Q 11.71875 9.328125 16.59375 8.109375 
Q 21.484375 6.890625 26.8125 6.890625 
Q 36.078125 6.890625 40.9375 10.546875 
Q 45.796875 14.203125 45.796875 21.1875 
Q 45.796875 27.640625 41.28125 31.265625 
Q 36.765625 34.90625 28.71875 34.90625 
L 20.21875 34.90625 
L 20.21875 43.015625 
L 29.109375 43.015625 
Q 36.375 43.015625 40.234375 45.921875 
Q 44.09375 48.828125 44.09375 54.296875 
Q 44.09375 59.90625 40.109375 62.90625 
Q 36.140625 65.921875 28.71875 65.921875 
Q 24.65625 65.921875 20.015625 65.03125 
Q 15.375 64.15625 9.8125 62.3125 
L 9.8125 71.09375 
Q 15.4375 72.65625 20.34375 73.4375 
Q 25.25 74.21875 29.59375 74.21875 
Q 40.828125 74.21875 47.359375 69.109375 
Q 53.90625 64.015625 53.90625 55.328125 
Q 53.90625 49.265625 50.4375 45.09375 
Q 46.96875 40.921875 40.578125 39.3125 
z
" id="DejaVuSans-51"/>
      </defs>
      <g transform="translate(390.029324 322.182437)scale(0.1 -0.1)">
       <use xlink:href="#DejaVuSans-51"/>
       <use x="63.623047" xlink:href="#DejaVuSans-48"/>
       <use x="127.246094" xlink:href="#DejaVuSans-48"/>
      </g>
     </g>
    </g>
    <g id="text_8">
     <!-- Generations -->
     <defs>
      <path d="M 59.515625 10.40625 
L 59.515625 29.984375 
L 43.40625 29.984375 
L 43.40625 38.09375 
L 69.28125 38.09375 
L 69.28125 6.78125 
Q 63.578125 2.734375 56.6875 0.65625 
Q 49.8125 -1.421875 42 -1.421875 
Q 24.90625 -1.421875 15.25 8.5625 
Q 5.609375 18.5625 5.609375 36.375 
Q 5.609375 54.25 15.25 64.234375 
Q 24.90625 74.21875 42 74.21875 
Q 49.125 74.21875 55.546875 72.453125 
Q 61.96875 70.703125 67.390625 67.28125 
L 67.390625 56.78125 
Q 61.921875 61.421875 55.765625 63.765625 
Q 49.609375 66.109375 42.828125 66.109375 
Q 29.4375 66.109375 22.71875 58.640625 
Q 16.015625 51.171875 16.015625 36.375 
Q 16.015625 21.625 22.71875 14.15625 
Q 29.4375 6.6875 42.828125 6.6875 
Q 48.046875 6.6875 52.140625 7.59375 
Q 56.25 8.5 59.515625 10.40625 
z
" id="DejaVuSans-71"/>
      <path d="M 56.203125 29.59375 
L 56.203125 25.203125 
L 14.890625 25.203125 
Q 15.484375 15.921875 20.484375 11.0625 
Q 25.484375 6.203125 34.421875 6.203125 
Q 39.59375 6.203125 44.453125 7.46875 
Q 49.3125 8.734375 54.109375 11.28125 
L 54.109375 2.78125 
Q 49.265625 0.734375 44.1875 -0.34375 
Q 39.109375 -1.421875 33.890625 -1.421875 
Q 20.796875 -1.421875 13.15625 6.1875 
Q 5.515625 13.8125 5.515625 26.8125 
Q 5.515625 40.234375 12.765625 48.109375 
Q 20.015625 56 32.328125 56 
Q 43.359375 56 49.78125 48.890625 
Q 56.203125 41.796875 56.203125 29.59375 
z
M 47.21875 32.234375 
Q 47.125 39.59375 43.09375 43.984375 
Q 39.0625 48.390625 32.421875 48.390625 
Q 24.90625 48.390625 20.390625 44.140625 
Q 15.875 39.890625 15.1875 32.171875 
z
" id="DejaVuSans-101"/>
      <path d="M 54.890625 33.015625 
L 54.890625 0 
L 45.90625 0 
L 45.90625 32.71875 
Q 45.90625 40.484375 42.875 44.328125 
Q 39.84375 48.1875 33.796875 48.1875 
Q 26.515625 48.1875 22.3125 43.546875 
Q 18.109375 38.921875 18.109375 30.90625 
L 18.109375 0 
L 9.078125 0 
L 9.078125 54.6875 
L 18.109375 54.6875 
L 18.109375 46.1875 
Q 21.34375 51.125 25.703125 53.5625 
Q 30.078125 56 35.796875 56 
Q 45.21875 56 50.046875 50.171875 
Q 54.890625 44.34375 54.890625 33.015625 
z
" id="DejaVuSans-110"/>
      <path d="M 41.109375 46.296875 
Q 39.59375 47.171875 37.8125 47.578125 
Q 36.03125 48 33.890625 48 
Q 26.265625 48 22.1875 43.046875 
Q 18.109375 38.09375 18.109375 28.8125 
L 18.109375 0 
L 9.078125 0 
L 9.078125 54.6875 
L 18.109375 54.6875 
L 18.109375 46.1875 
Q 20.953125 51.171875 25.484375 53.578125 
Q 30.03125 56 36.53125 56 
Q 37.453125 56 38.578125 55.875 
Q 39.703125 55.765625 41.0625 55.515625 
z
" id="DejaVuSans-114"/>
      <path d="M 34.28125 27.484375 
Q 23.390625 27.484375 19.1875 25 
Q 14.984375 22.515625 14.984375 16.5 
Q 14.984375 11.71875 18.140625 8.90625 
Q 21.296875 6.109375 26.703125 6.109375 
Q 34.1875 6.109375 38.703125 11.40625 
Q 43.21875 16.703125 43.21875 25.484375 
L 43.21875 27.484375 
z
M 52.203125 31.203125 
L 52.203125 0 
L 43.21875 0 
L 43.21875 8.296875 
Q 40.140625 3.328125 35.546875 0.953125 
Q 30.953125 -1.421875 24.3125 -1.421875 
Q 15.921875 -1.421875 10.953125 3.296875 
Q 6 8.015625 6 15.921875 
Q 6 25.140625 12.171875 29.828125 
Q 18.359375 34.515625 30.609375 34.515625 
L 43.21875 34.515625 
L 43.21875 35.40625 
Q 43.21875 41.609375 39.140625 45 
Q 35.0625 48.390625 27.6875 48.390625 
Q 23 48.390625 18.546875 47.265625 
Q 14.109375 46.140625 10.015625 43.890625 
L 10.015625 52.203125 
Q 14.9375 54.109375 19.578125 55.046875 
Q 24.21875 56 28.609375 56 
Q 40.484375 56 46.34375 49.84375 
Q 52.203125 43.703125 52.203125 31.203125 
z
" id="DejaVuSans-97"/>
      <path d="M 18.3125 70.21875 
L 18.3125 54.6875 
L 36.8125 54.6875 
L 36.8125 47.703125 
L 18.3125 47.703125 
L 18.3125 18.015625 
Q 18.3125 11.328125 20.140625 9.421875 
Q 21.96875 7.515625 27.59375 7.515625 
L 36.8125 7.515625 
L 36.8125 0 
L 27.59375 0 
Q 17.1875 0 13.234375 3.875 
Q 9.28125 7.765625 9.28125 18.015625 
L 9.28125 47.703125 
L 2.6875 47.703125 
L 2.6875 54.6875 
L 9.28125 54.6875 
L 9.28125 70.21875 
z
" id="DejaVuSans-116"/>
      <path d="M 9.421875 54.6875 
L 18.40625 54.6875 
L 18.40625 0 
L 9.421875 0 
z
M 9.421875 75.984375 
L 18.40625 75.984375 
L 18.40625 64.59375 
L 9.421875 64.59375 
z
" id="DejaVuSans-105"/>
      <path d="M 30.609375 48.390625 
Q 23.390625 48.390625 19.1875 42.75 
Q 14.984375 37.109375 14.984375 27.296875 
Q 14.984375 17.484375 19.15625 11.84375 
Q 23.34375 6.203125 30.609375 6.203125 
Q 37.796875 6.203125 41.984375 11.859375 
Q 46.1875 17.53125 46.1875 27.296875 
Q 46.1875 37.015625 41.984375 42.703125 
Q 37.796875 48.390625 30.609375 48.390625 
z
M 30.609375 56 
Q 42.328125 56 49.015625 48.375 
Q 55.71875 40.765625 55.71875 27.296875 
Q 55.71875 13.875 49.015625 6.21875 
Q 42.328125 -1.421875 30.609375 -1.421875 
Q 18.84375 -1.421875 12.171875 6.21875 
Q 5.515625 13.875 5.515625 27.296875 
Q 5.515625 40.765625 12.171875 48.375 
Q 18.84375 56 30.609375 56 
z
" id="DejaVuSans-111"/>
      <path d="M 44.28125 53.078125 
L 44.28125 44.578125 
Q 40.484375 46.53125 36.375 47.5 
Q 32.28125 48.484375 27.875 48.484375 
Q 21.1875 48.484375 17.84375 46.4375 
Q 14.5 44.390625 14.5 40.28125 
Q 14.5 37.15625 16.890625 35.375 
Q 19.28125 33.59375 26.515625 31.984375 
L 29.59375 31.296875 
Q 39.15625 29.25 43.1875 25.515625 
Q 47.21875 21.78125 47.21875 15.09375 
Q 47.21875 7.46875 41.1875 3.015625 
Q 35.15625 -1.421875 24.609375 -1.421875 
Q 20.21875 -1.421875 15.453125 -0.5625 
Q 10.6875 0.296875 5.421875 2 
L 5.421875 11.28125 
Q 10.40625 8.6875 15.234375 7.390625 
Q 20.0625 6.109375 24.8125 6.109375 
Q 31.15625 6.109375 34.5625 8.28125 
Q 37.984375 10.453125 37.984375 14.40625 
Q 37.984375 18.0625 35.515625 20.015625 
Q 33.0625 21.96875 24.703125 23.78125 
L 21.578125 24.515625 
Q 13.234375 26.265625 9.515625 29.90625 
Q 5.8125 33.546875 5.8125 39.890625 
Q 5.8125 47.609375 11.28125 51.796875 
Q 16.75 56 26.8125 56 
Q 31.78125 56 36.171875 55.265625 
Q 40.578125 54.546875 44.28125 53.078125 
z
" id="DejaVuSans-115"/>
     </defs>
     <g transform="translate(205.662344 335.860562)scale(0.1 -0.1)">
      <use xlink:href="#DejaVuSans-71"/>
      <use x="77.490234" xlink:href="#DejaVuSans-101"/>
      <use x="139.013672" xlink:href="#DejaVuSans-110"/>
      <use x="202.392578" xlink:href="#DejaVuSans-101"/>
      <use x="263.916016" xlink:href="#DejaVuSans-114"/>
      <use x="305.029297" xlink:href="#DejaVuSans-97"/>
      <use x="366.308594" xlink:href="#DejaVuSans-116"/>
      <use x="405.517578" xlink:href="#DejaVuSans-105"/>
      <use x="433.300781" xlink:href="#DejaVuSans-111"/>
      <use x="494.482422" xlink:href="#DejaVuSans-110"/>
      <use x="557.861328" xlink:href="#DejaVuSans-115"/>
     </g>
    </g>
   </g>
   <g id="matplotlib.axis_2">
    <g id="ytick_1">
     <g id="line2d_15">
      <path clip-path="url(#pd00c9fc7cc)" d="M 57.6 282.243077 
L 414.72 282.243077 
" style="fill:none;stroke:#b0b0b0;stroke-linecap:square;stroke-width:0.8;"/>
     </g>
     <g id="line2d_16">
      <defs>
       <path d="M 0 0 
L -3.5 0 
" id="m39caffe148" style="stroke:#000000;stroke-width:0.8;"/>
      </defs>
      <g>
       <use style="stroke:#000000;stroke-width:0.8;" x="57.6" xlink:href="#m39caffe148" y="282.243077"/>
      </g>
     </g>
     <g id="text_9">
      <!-- 4.0 -->
      <defs>
       <path d="M 37.796875 64.3125 
L 12.890625 25.390625 
L 37.796875 25.390625 
z
M 35.203125 72.90625 
L 47.609375 72.90625 
L 47.609375 25.390625 
L 58.015625 25.390625 
L 58.015625 17.1875 
L 47.609375 17.1875 
L 47.609375 0 
L 37.796875 0 
L 37.796875 17.1875 
L 4.890625 17.1875 
L 4.890625 26.703125 
z
" id="DejaVuSans-52"/>
       <path d="M 10.6875 12.40625 
L 21 12.40625 
L 21 0 
L 10.6875 0 
z
" id="DejaVuSans-46"/>
      </defs>
      <g transform="translate(34.696875 286.042296)scale(0.1 -0.1)">
       <use xlink:href="#DejaVuSans-52"/>
       <use x="63.623047" xlink:href="#DejaVuSans-46"/>
       <use x="95.410156" xlink:href="#DejaVuSans-48"/>
      </g>
     </g>
    </g>
    <g id="ytick_2">
     <g id="line2d_17">
      <path clip-path="url(#pd00c9fc7cc)" d="M 57.6 241.408242 
L 414.72 241.408242 
" style="fill:none;stroke:#b0b0b0;stroke-linecap:square;stroke-width:0.8;"/>
     </g>
     <g id="line2d_18">
      <g>
       <use style="stroke:#000000;stroke-width:0.8;" x="57.6" xlink:href="#m39caffe148" y="241.408242"/>
      </g>
     </g>
     <g id="text_10">
      <!-- 4.5 -->
      <g transform="translate(34.696875 245.207461)scale(0.1 -0.1)">
       <use xlink:href="#DejaVuSans-52"/>
       <use x="63.623047" xlink:href="#DejaVuSans-46"/>
       <use x="95.410156" xlink:href="#DejaVuSans-53"/>
      </g>
     </g>
    </g>
    <g id="ytick_3">
     <g id="line2d_19">
      <path clip-path="url(#pd00c9fc7cc)" d="M 57.6 200.573407 
L 414.72 200.573407 
" style="fill:none;stroke:#b0b0b0;stroke-linecap:square;stroke-width:0.8;"/>
     </g>
     <g id="line2d_20">
      <g>
       <use style="stroke:#000000;stroke-width:0.8;" x="57.6" xlink:href="#m39caffe148" y="200.573407"/>
      </g>
     </g>
     <g id="text_11">
      <!-- 5.0 -->
      <g transform="translate(34.696875 204.372625)scale(0.1 -0.1)">
       <use xlink:href="#DejaVuSans-53"/>
       <use x="63.623047" xlink:href="#DejaVuSans-46"/>
       <use x="95.410156" xlink:href="#DejaVuSans-48"/>
      </g>
     </g>
    </g>
    <g id="ytick_4">
     <g id="line2d_21">
      <path clip-path="url(#pd00c9fc7cc)" d="M 57.6 159.738571 
L 414.72 159.738571 
" style="fill:none;stroke:#b0b0b0;stroke-linecap:square;stroke-width:0.8;"/>
     </g>
     <g id="line2d_22">
      <g>
       <use style="stroke:#000000;stroke-width:0.8;" x="57.6" xlink:href="#m39caffe148" y="159.738571"/>
      </g>
     </g>
     <g id="text_12">
      <!-- 5.5 -->
      <g transform="translate(34.696875 163.53779)scale(0.1 -0.1)">
       <use xlink:href="#DejaVuSans-53"/>
       <use x="63.623047" xlink:href="#DejaVuSans-46"/>
       <use x="95.410156" xlink:href="#DejaVuSans-53"/>
      </g>
     </g>
    </g>
    <g id="ytick_5">
     <g id="line2d_23">
      <path clip-path="url(#pd00c9fc7cc)" d="M 57.6 118.903736 
L 414.72 118.903736 
" style="fill:none;stroke:#b0b0b0;stroke-linecap:square;stroke-width:0.8;"/>
     </g>
     <g id="line2d_24">
      <g>
       <use style="stroke:#000000;stroke-width:0.8;" x="57.6" xlink:href="#m39caffe148" y="118.903736"/>
      </g>
     </g>
     <g id="text_13">
      <!-- 6.0 -->
      <defs>
       <path d="M 33.015625 40.375 
Q 26.375 40.375 22.484375 35.828125 
Q 18.609375 31.296875 18.609375 23.390625 
Q 18.609375 15.53125 22.484375 10.953125 
Q 26.375 6.390625 33.015625 6.390625 
Q 39.65625 6.390625 43.53125 10.953125 
Q 47.40625 15.53125 47.40625 23.390625 
Q 47.40625 31.296875 43.53125 35.828125 
Q 39.65625 40.375 33.015625 40.375 
z
M 52.59375 71.296875 
L 52.59375 62.3125 
Q 48.875 64.0625 45.09375 64.984375 
Q 41.3125 65.921875 37.59375 65.921875 
Q 27.828125 65.921875 22.671875 59.328125 
Q 17.53125 52.734375 16.796875 39.40625 
Q 19.671875 43.65625 24.015625 45.921875 
Q 28.375 48.1875 33.59375 48.1875 
Q 44.578125 48.1875 50.953125 41.515625 
Q 57.328125 34.859375 57.328125 23.390625 
Q 57.328125 12.15625 50.6875 5.359375 
Q 44.046875 -1.421875 33.015625 -1.421875 
Q 20.359375 -1.421875 13.671875 8.265625 
Q 6.984375 17.96875 6.984375 36.375 
Q 6.984375 53.65625 15.1875 63.9375 
Q 23.390625 74.21875 37.203125 74.21875 
Q 40.921875 74.21875 44.703125 73.484375 
Q 48.484375 72.75 52.59375 71.296875 
z
" id="DejaVuSans-54"/>
      </defs>
      <g transform="translate(34.696875 122.702955)scale(0.1 -0.1)">
       <use xlink:href="#DejaVuSans-54"/>
       <use x="63.623047" xlink:href="#DejaVuSans-46"/>
       <use x="95.410156" xlink:href="#DejaVuSans-48"/>
      </g>
     </g>
    </g>
    <g id="ytick_6">
     <g id="line2d_25">
      <path clip-path="url(#pd00c9fc7cc)" d="M 57.6 78.068901 
L 414.72 78.068901 
" style="fill:none;stroke:#b0b0b0;stroke-linecap:square;stroke-width:0.8;"/>
     </g>
     <g id="line2d_26">
      <g>
       <use style="stroke:#000000;stroke-width:0.8;" x="57.6" xlink:href="#m39caffe148" y="78.068901"/>
      </g>
     </g>
     <g id="text_14">
      <!-- 6.5 -->
      <g transform="translate(34.696875 81.86812)scale(0.1 -0.1)">
       <use xlink:href="#DejaVuSans-54"/>
       <use x="63.623047" xlink:href="#DejaVuSans-46"/>
       <use x="95.410156" xlink:href="#DejaVuSans-53"/>
      </g>
     </g>
    </g>
    <g id="text_15">
     <!-- Fitness -->
     <defs>
      <path d="M 9.8125 72.90625 
L 51.703125 72.90625 
L 51.703125 64.59375 
L 19.671875 64.59375 
L 19.671875 43.109375 
L 48.578125 43.109375 
L 48.578125 34.8125 
L 19.671875 34.8125 
L 19.671875 0 
L 9.8125 0 
z
" id="DejaVuSans-70"/>
     </defs>
     <g transform="translate(28.617187 192.202219)rotate(-90)scale(0.1 -0.1)">
      <use xlink:href="#DejaVuSans-70"/>
      <use x="57.410156" xlink:href="#DejaVuSans-105"/>
      <use x="85.193359" xlink:href="#DejaVuSans-116"/>
      <use x="124.402344" xlink:href="#DejaVuSans-110"/>
      <use x="187.78125" xlink:href="#DejaVuSans-101"/>
      <use x="249.304688" xlink:href="#DejaVuSans-115"/>
      <use x="301.404297" xlink:href="#DejaVuSans-115"/>
     </g>
    </g>
   </g>
   <g id="line2d_27">
    <path clip-path="url(#pd00c9fc7cc)" d="M 73.832727 282.243077 
L 74.918528 282.552991 
L 76.00433 282.209043 
L 77.090131 280.768481 
L 78.175932 282.395558 
L 79.261733 275.614877 
L 80.347534 279.167581 
L 81.433335 272.310915 
L 82.519137 274.28284 
L 83.604938 272.849981 
L 84.690739 274.745522 
L 85.77654 277.601351 
L 86.862341 262.307826 
L 87.948142 275.180407 
L 89.033943 268.967285 
L 90.119745 266.665086 
L 91.205546 252.022126 
L 92.291347 273.367744 
L 93.377148 236.652145 
L 94.462949 239.109338 
L 95.54875 230.02692 
L 96.634552 240.548693 
L 97.720353 221.919487 
L 98.806154 221.164154 
L 99.891955 213.235268 
L 100.977756 193.656393 
L 102.063557 218.33921 
L 103.149358 199.72932 
L 104.23516 215.626294 
L 105.320961 190.478792 
L 106.406762 200.113963 
L 107.492563 176.445448 
L 108.578364 204.398761 
L 109.664165 168.649432 
L 110.749967 194.738495 
L 111.835768 192.038127 
L 112.921569 176.111797 
L 114.00737 174.511879 
L 115.093171 164.334713 
L 116.178972 173.151937 
L 117.264773 167.846603 
L 118.350575 161.161812 
L 119.436376 179.319953 
L 120.522177 187.851446 
L 121.607978 175.136051 
L 122.693779 180.605566 
L 123.77958 195.411677 
L 124.865382 187.520638 
L 125.951183 186.074452 
L 127.036984 167.39967 
L 128.122785 136.474842 
L 129.208586 201.19583 
L 130.294387 180.532841 
L 131.380189 174.634798 
L 132.46599 167.926722 
L 133.551791 176.833702 
L 134.637592 204.251184 
L 135.723393 164.494351 
L 136.809194 174.741214 
L 137.894995 153.934083 
L 138.980797 190.11127 
L 140.066598 159.137231 
L 141.152399 175.254354 
L 142.2382 134.48615 
L 143.324001 175.56743 
L 144.409802 159.789724 
L 145.495604 149.195888 
L 147.667206 170.42264 
L 148.753007 139.237751 
L 149.838808 124.979593 
L 150.924609 138.649541 
L 152.01041 147.338815 
L 153.096212 179.042899 
L 154.182013 124.326861 
L 155.267814 126.342883 
L 156.353615 149.183538 
L 157.439416 132.793171 
L 158.525217 149.358996 
L 159.611019 147.842787 
L 160.69682 149.580741 
L 161.782621 144.996563 
L 162.868422 132.883597 
L 163.954223 174.57474 
L 165.040024 153.378439 
L 166.125825 168.185028 
L 167.211627 148.086635 
L 168.297428 179.306964 
L 169.383229 144.780719 
L 170.46903 171.607317 
L 171.554831 149.583067 
L 172.640632 151.204695 
L 173.726434 131.624126 
L 174.812235 156.894986 
L 175.898036 149.290369 
L 176.983837 157.894888 
L 178.069638 123.937198 
L 179.155439 150.494345 
L 180.24124 134.294078 
L 181.327042 191.249986 
L 182.412843 171.857169 
L 183.498644 134.350098 
L 184.584445 155.487707 
L 185.670246 157.025669 
L 186.756047 161.704801 
L 187.841849 148.065359 
L 188.92765 191.493272 
L 190.013451 90.646042 
L 191.099252 146.809899 
L 192.185053 171.895534 
L 193.270854 189.057579 
L 194.356656 140.335599 
L 195.442457 158.894044 
L 196.528258 158.387031 
L 197.614059 146.392769 
L 198.69986 168.853682 
L 199.785661 135.699125 
L 200.871462 153.541651 
L 201.957264 129.093203 
L 203.043065 165.455926 
L 204.128866 137.986582 
L 205.214667 131.278765 
L 206.300468 141.873595 
L 207.386269 158.535127 
L 209.557872 145.643892 
L 210.643673 105.926585 
L 211.729474 127.520113 
L 212.815275 173.322797 
L 213.901076 203.699288 
L 214.986877 181.96748 
L 216.072679 185.445115 
L 217.15848 202.419737 
L 218.244281 150.863711 
L 219.330082 167.285509 
L 220.415883 143.760449 
L 221.501684 147.870131 
L 222.587486 169.400215 
L 223.673287 117.545623 
L 224.759088 175.719575 
L 225.844889 130.43087 
L 226.93069 147.545277 
L 228.016491 147.227646 
L 229.102292 107.552809 
L 230.188094 148.701964 
L 231.273895 151.448471 
L 232.359696 165.669737 
L 233.445497 168.526342 
L 234.531298 162.283936 
L 235.617099 164.496374 
L 236.702901 167.134937 
L 237.788702 190.876522 
L 238.874503 166.741783 
L 239.960304 139.089646 
L 241.046105 177.961605 
L 242.131906 190.992894 
L 243.217708 149.824673 
L 244.303509 174.137376 
L 245.38931 136.399768 
L 246.475111 127.910555 
L 247.560912 125.497924 
L 248.646713 144.312278 
L 249.732514 139.023448 
L 250.818316 162.849989 
L 251.904117 143.361581 
L 252.989918 148.512626 
L 254.075719 166.037838 
L 255.16152 152.295068 
L 256.247321 160.045664 
L 257.333123 187.039418 
L 258.418924 155.791598 
L 259.504725 139.83398 
L 260.590526 149.668452 
L 261.676327 144.511035 
L 262.762128 183.328673 
L 263.847929 155.290306 
L 264.933731 144.25811 
L 266.019532 159.515849 
L 267.105333 171.848742 
L 268.191134 135.292088 
L 269.276935 130.6559 
L 270.362736 159.673454 
L 271.448538 142.301845 
L 272.534339 155.133528 
L 273.62014 133.712038 
L 274.705941 132.819111 
L 275.791742 122.569563 
L 276.877543 162.848335 
L 277.963344 114.910485 
L 279.049146 156.928958 
L 280.134947 148.403906 
L 281.220748 157.651805 
L 282.306549 129.030348 
L 283.39235 132.089594 
L 284.478151 174.082004 
L 285.563953 162.530701 
L 286.649754 118.42489 
L 287.735555 152.430549 
L 288.821356 156.10487 
L 289.907157 158.019119 
L 290.992958 152.506364 
L 292.07876 157.798056 
L 293.164561 189.697264 
L 294.250362 148.980574 
L 295.336163 149.322462 
L 296.421964 152.530605 
L 297.507765 133.697482 
L 298.593566 145.53475 
L 299.679368 147.777299 
L 301.85097 132.131225 
L 302.936771 136.630364 
L 304.022572 154.387054 
L 305.108373 138.935406 
L 306.194175 140.718071 
L 308.365777 199.237629 
L 309.451578 168.437907 
L 310.537379 187.566643 
L 311.62318 153.151706 
L 312.708981 170.529296 
L 313.794783 165.205697 
L 314.880584 126.206458 
L 315.966385 162.568471 
L 317.052186 141.623982 
L 318.137987 137.527335 
L 319.223788 139.572942 
L 320.30959 158.973052 
L 321.395391 139.101829 
L 322.481192 115.929293 
L 323.566993 171.013392 
L 324.652794 161.487422 
L 326.824396 131.487839 
L 327.910198 139.784821 
L 328.995999 156.743508 
L 330.0818 124.45627 
L 332.253402 154.904311 
L 333.339203 113.077643 
L 334.425005 153.236223 
L 335.510806 145.764976 
L 336.596607 144.223654 
L 337.682408 162.429017 
L 338.768209 124.699974 
L 339.85401 153.741204 
L 340.939811 116.093723 
L 342.025613 146.793318 
L 343.111414 133.175361 
L 344.197215 154.03844 
L 345.283016 138.611864 
L 346.368817 136.754288 
L 347.454618 137.783624 
L 348.54042 120.480625 
L 349.626221 139.968465 
L 350.712022 142.978366 
L 351.797823 115.659988 
L 352.883624 133.824881 
L 353.969425 143.004217 
L 355.055227 107.218089 
L 356.141028 132.972371 
L 357.226829 136.270704 
L 358.31263 130.657547 
L 359.398431 137.564897 
L 360.484232 128.800573 
L 361.570033 124.682613 
L 362.655835 148.450518 
L 363.741636 135.089596 
L 364.827437 143.087888 
L 365.913238 158.482979 
L 366.999039 127.731346 
L 368.08484 150.816577 
L 369.170642 115.231065 
L 370.256443 108.327505 
L 371.342244 155.845146 
L 372.428045 161.599524 
L 373.513846 144.440024 
L 374.599647 108.641062 
L 375.685448 127.626813 
L 376.77125 148.78093 
L 377.857051 180.785136 
L 378.942852 153.763935 
L 380.028653 136.27155 
L 381.114454 136.720618 
L 382.200255 110.877303 
L 383.286057 137.300271 
L 384.371858 146.900259 
L 385.457659 191.091457 
L 386.54346 143.431568 
L 387.629261 125.071472 
L 388.715062 127.499806 
L 389.800863 121.551478 
L 390.886665 119.605063 
L 391.972466 132.028767 
L 393.058267 157.542041 
L 394.144068 144.538276 
L 395.229869 158.888931 
L 396.31567 121.25576 
L 397.401472 166.286653 
L 398.487273 169.193059 
L 398.487273 169.193059 
" style="fill:none;stroke:#0000ff;stroke-linecap:square;stroke-width:1.5;"/>
   </g>
   <g id="line2d_28">
    <path clip-path="url(#pd00c9fc7cc)" d="M 73.832727 282.243077 
L 74.918528 285.344213 
L 76.00433 285.316487 
L 77.090131 287.929205 
L 78.175932 295.488 
L 79.261733 283.391396 
L 80.347534 285.000289 
L 81.433335 281.328489 
L 82.519137 283.072461 
L 83.604938 284.284187 
L 84.690739 287.401752 
L 85.77654 289.513962 
L 86.862341 285.810911 
L 87.948142 290.125785 
L 89.033943 287.568542 
L 90.119745 283.323106 
L 91.205546 272.074514 
L 92.291347 291.117937 
L 93.377148 253.766398 
L 94.462949 259.206887 
L 95.54875 247.25155 
L 96.634552 264.232771 
L 97.720353 241.72667 
L 98.806154 245.536993 
L 99.891955 236.271705 
L 100.977756 217.687255 
L 102.063557 239.769142 
L 103.149358 223.979091 
L 104.23516 233.661998 
L 105.320961 211.713825 
L 106.406762 219.702571 
L 107.492563 201.016174 
L 108.578364 227.917348 
L 109.664165 189.908337 
L 110.749967 218.615429 
L 111.835768 214.438976 
L 112.921569 199.623745 
L 114.00737 198.28215 
L 115.093171 191.286894 
L 116.178972 197.104359 
L 117.264773 192.062202 
L 118.350575 183.367174 
L 119.436376 202.87227 
L 120.522177 211.41137 
L 121.607978 197.402211 
L 122.693779 205.35961 
L 123.77958 220.386474 
L 124.865382 211.382473 
L 125.951183 209.783108 
L 127.036984 191.05443 
L 128.122785 158.066726 
L 129.208586 226.119572 
L 130.294387 202.815159 
L 131.380189 195.045286 
L 132.46599 190.392138 
L 133.551791 199.187865 
L 134.637592 225.949802 
L 135.723393 186.249133 
L 136.809194 197.901249 
L 137.894995 173.306406 
L 138.980797 211.359812 
L 140.066598 181.318792 
L 141.152399 200.810949 
L 142.2382 161.540944 
L 143.324001 200.680494 
L 144.409802 183.796521 
L 145.495604 171.118069 
L 146.581405 184.907023 
L 147.667206 193.579184 
L 148.753007 163.843104 
L 149.838808 148.820979 
L 150.924609 163.109748 
L 152.01041 173.998736 
L 153.096212 202.641797 
L 154.182013 150.29274 
L 155.267814 149.467478 
L 156.353615 174.014572 
L 157.439416 155.499656 
L 158.525217 171.828193 
L 159.611019 171.637286 
L 160.69682 173.923013 
L 161.782621 171.089252 
L 162.868422 154.545518 
L 163.954223 199.199751 
L 165.040024 178.590122 
L 166.125825 191.725773 
L 167.211627 173.784864 
L 168.297428 204.412459 
L 169.383229 169.415691 
L 170.46903 195.790932 
L 171.554831 177.372328 
L 172.640632 179.266386 
L 173.726434 159.270186 
L 174.812235 180.964013 
L 175.898036 171.009793 
L 176.983837 181.525416 
L 178.069638 146.212182 
L 179.155439 176.482483 
L 180.24124 160.842391 
L 181.327042 224.117925 
L 182.412843 198.584251 
L 183.498644 159.381005 
L 184.584445 181.305329 
L 185.670246 179.238929 
L 186.756047 190.090843 
L 187.841849 174.524008 
L 188.92765 219.39284 
L 190.013451 118.132611 
L 191.099252 173.19192 
L 192.185053 199.791131 
L 193.270854 213.690027 
L 194.356656 165.195005 
L 195.442457 182.675714 
L 196.528258 183.573421 
L 197.614059 171.514846 
L 198.69986 194.435187 
L 199.785661 157.818005 
L 200.871462 177.95328 
L 201.957264 155.256458 
L 203.043065 188.732127 
L 204.128866 161.069002 
L 205.214667 154.643412 
L 206.300468 164.874557 
L 207.386269 181.398961 
L 208.472071 177.177139 
L 209.557872 168.74143 
L 210.643673 134.14952 
L 211.729474 149.390075 
L 212.815275 199.725134 
L 213.901076 229.282082 
L 214.986877 205.516946 
L 216.072679 211.855975 
L 217.15848 229.337786 
L 218.244281 181.735167 
L 219.330082 192.365662 
L 220.415883 171.325661 
L 221.501684 171.770957 
L 222.587486 195.149306 
L 223.673287 141.529864 
L 224.759088 198.213301 
L 225.844889 153.332249 
L 226.93069 170.836428 
L 228.016491 171.87698 
L 229.102292 135.94087 
L 230.188094 173.631493 
L 231.273895 176.940571 
L 232.359696 192.467154 
L 233.445497 193.734758 
L 234.531298 187.090104 
L 235.617099 191.967519 
L 236.702901 190.761693 
L 237.788702 215.567202 
L 239.960304 162.847806 
L 241.046105 202.717256 
L 242.131906 217.327261 
L 243.217708 177.947412 
L 244.303509 197.775143 
L 245.38931 156.567155 
L 246.475111 152.794098 
L 247.560912 148.482787 
L 248.646713 168.083756 
L 249.732514 164.03863 
L 250.818316 184.39552 
L 251.904117 167.057098 
L 252.989918 171.088603 
L 254.075719 195.651816 
L 255.16152 178.597726 
L 256.247321 185.194835 
L 257.333123 211.266744 
L 258.418924 181.420339 
L 259.504725 165.077967 
L 260.590526 175.174122 
L 261.676327 170.156673 
L 262.762128 207.008918 
L 263.847929 180.471555 
L 264.933731 168.890243 
L 266.019532 184.584079 
L 267.105333 195.895773 
L 268.191134 157.953951 
L 269.276935 157.992425 
L 270.362736 185.712529 
L 271.448538 165.015466 
L 272.534339 175.640387 
L 273.62014 157.689633 
L 274.705941 155.945003 
L 275.791742 146.094692 
L 276.877543 184.049843 
L 277.963344 137.412736 
L 279.049146 181.037006 
L 280.134947 170.991469 
L 281.220748 180.11173 
L 282.306549 152.11123 
L 283.39235 156.184923 
L 284.478151 200.758215 
L 285.563953 187.257879 
L 286.649754 145.095996 
L 287.735555 174.670219 
L 289.907157 182.45708 
L 290.992958 175.828437 
L 292.07876 181.8615 
L 293.164561 213.381368 
L 294.250362 174.164864 
L 296.421964 174.143685 
L 297.507765 156.969641 
L 298.593566 166.157128 
L 299.679368 171.449782 
L 300.765169 160.018167 
L 301.85097 154.497455 
L 302.936771 159.640334 
L 304.022572 177.089127 
L 305.108373 160.986907 
L 306.194175 169.867173 
L 307.279976 195.216223 
L 308.365777 224.868066 
L 309.451578 194.33682 
L 310.537379 212.13958 
L 311.62318 177.354128 
L 312.708981 195.82628 
L 313.794783 189.074409 
L 314.880584 153.186852 
L 315.966385 186.12226 
L 317.052186 167.878455 
L 318.137987 161.938373 
L 319.223788 166.015412 
L 320.30959 180.922462 
L 321.395391 164.854952 
L 322.481192 140.4691 
L 323.566993 193.406343 
L 324.652794 185.530276 
L 325.738595 169.672056 
L 326.824396 155.87962 
L 327.910198 162.071352 
L 328.995999 179.591851 
L 330.0818 147.554818 
L 332.253402 178.777221 
L 333.339203 135.526879 
L 334.425005 175.664037 
L 335.510806 166.966886 
L 336.596607 167.273011 
L 337.682408 186.271318 
L 338.768209 145.426247 
L 339.85401 177.938559 
L 340.939811 136.803219 
L 342.025613 168.669705 
L 343.111414 156.749114 
L 344.197215 177.088398 
L 345.283016 162.403343 
L 346.368817 158.510072 
L 347.454618 160.535467 
L 348.54042 143.004625 
L 349.626221 160.965788 
L 350.712022 165.359049 
L 351.797823 144.086722 
L 352.883624 156.623855 
L 353.969425 167.015419 
L 355.055227 131.25988 
L 356.141028 155.553598 
L 357.226829 162.318004 
L 358.31263 153.0894 
L 359.398431 160.18863 
L 360.484232 151.509854 
L 361.570033 145.701347 
L 362.655835 171.057935 
L 363.741636 156.790502 
L 364.827437 166.372591 
L 365.913238 180.922996 
L 366.999039 151.267728 
L 368.08484 172.289494 
L 369.170642 137.035284 
L 370.256443 132.771122 
L 371.342244 179.990384 
L 372.428045 184.160621 
L 373.513846 165.885371 
L 374.599647 131.158368 
L 375.685448 149.715362 
L 376.77125 171.646172 
L 377.857051 201.849537 
L 378.942852 178.49039 
L 380.028653 158.841901 
L 381.114454 162.944281 
L 382.200255 133.549546 
L 383.286057 161.165632 
L 384.371858 166.977434 
L 385.457659 213.149759 
L 386.54346 165.880303 
L 387.629261 148.082751 
L 388.715062 151.084897 
L 390.886665 142.175864 
L 391.972466 157.106558 
L 393.058267 182.495703 
L 394.144068 169.165023 
L 395.229869 182.605606 
L 396.31567 145.294003 
L 397.401472 191.988615 
L 398.487273 194.785081 
L 398.487273 194.785081 
" style="fill:none;stroke:#008000;stroke-dasharray:9.6,2.4,1.5,2.4;stroke-dashoffset:0;stroke-width:1.5;"/>
   </g>
   <g id="line2d_29">
    <path clip-path="url(#pd00c9fc7cc)" d="M 73.832727 282.243077 
L 74.918528 279.761769 
L 76.00433 279.101599 
L 77.090131 273.607757 
L 78.175932 269.303116 
L 79.261733 267.838357 
L 80.347534 273.334873 
L 81.433335 263.293342 
L 82.519137 265.49322 
L 83.604938 261.415775 
L 84.690739 262.089291 
L 85.77654 265.688739 
L 86.862341 238.80474 
L 87.948142 260.235029 
L 89.033943 250.366028 
L 90.119745 250.007067 
L 91.205546 231.969737 
L 92.291347 255.617551 
L 93.377148 219.537892 
L 94.462949 219.011789 
L 95.54875 212.802291 
L 96.634552 216.864615 
L 97.720353 202.112304 
L 98.806154 196.791315 
L 99.891955 190.19883 
L 100.977756 169.625531 
L 102.063557 196.909278 
L 103.149358 175.479549 
L 104.23516 197.59059 
L 105.320961 169.243758 
L 106.406762 180.525356 
L 107.492563 151.874721 
L 108.578364 180.880175 
L 109.664165 147.390527 
L 110.749967 170.86156 
L 111.835768 169.637279 
L 112.921569 152.599849 
L 114.00737 150.741609 
L 115.093171 137.382533 
L 116.178972 149.199515 
L 117.264773 143.631004 
L 118.350575 138.95645 
L 119.436376 155.767637 
L 120.522177 164.291523 
L 121.607978 152.86989 
L 122.693779 155.851522 
L 123.77958 170.436879 
L 124.865382 163.658803 
L 125.951183 162.365795 
L 127.036984 143.744911 
L 128.122785 114.882959 
L 129.208586 176.272089 
L 130.294387 158.250522 
L 131.380189 154.22431 
L 132.46599 145.461305 
L 133.551791 154.479539 
L 134.637592 182.552566 
L 135.723393 142.739569 
L 136.809194 151.581179 
L 137.894995 134.561759 
L 138.980797 168.862728 
L 140.066598 136.95567 
L 141.152399 149.697758 
L 142.2382 107.431356 
L 143.324001 150.454367 
L 144.409802 135.782927 
L 145.495604 127.273706 
L 146.581405 135.72939 
L 147.667206 147.266096 
L 148.753007 114.632397 
L 149.838808 101.138208 
L 150.924609 114.189335 
L 152.01041 120.678894 
L 153.096212 155.444002 
L 154.182013 98.360982 
L 155.267814 103.218288 
L 156.353615 124.352504 
L 157.439416 110.086687 
L 158.525217 126.889799 
L 159.611019 124.048287 
L 160.69682 125.23847 
L 161.782621 118.903875 
L 162.868422 111.221676 
L 163.954223 149.949729 
L 165.040024 128.166756 
L 166.125825 144.644283 
L 167.211627 122.388405 
L 168.297428 154.20147 
L 169.383229 120.145746 
L 170.46903 147.423702 
L 171.554831 121.793807 
L 172.640632 123.143004 
L 173.726434 103.978066 
L 174.812235 132.825959 
L 175.898036 127.570946 
L 176.983837 134.264361 
L 178.069638 101.662215 
L 179.155439 124.506206 
L 180.24124 107.745764 
L 181.327042 158.382048 
L 182.412843 145.130086 
L 183.498644 109.319191 
L 184.584445 129.670086 
L 185.670246 134.812409 
L 186.756047 133.318758 
L 187.841849 121.60671 
L 188.92765 163.593703 
L 190.013451 63.159473 
L 191.099252 120.427878 
L 192.185053 143.999938 
L 193.270854 164.42513 
L 194.356656 115.476194 
L 195.442457 135.112375 
L 196.528258 133.200641 
L 197.614059 121.270692 
L 198.69986 143.272178 
L 199.785661 113.580246 
L 200.871462 129.130023 
L 201.957264 102.929948 
L 203.043065 142.179726 
L 204.128866 114.904163 
L 205.214667 107.914118 
L 206.300468 118.872632 
L 207.386269 135.671292 
L 208.472071 127.020026 
L 209.557872 122.546354 
L 210.643673 77.703651 
L 211.729474 105.65015 
L 212.815275 146.92046 
L 213.901076 178.116495 
L 214.986877 158.418013 
L 216.072679 159.034254 
L 217.15848 175.501689 
L 218.244281 119.992255 
L 219.330082 142.205355 
L 220.415883 116.195236 
L 221.501684 123.969306 
L 222.587486 143.651124 
L 223.673287 93.561381 
L 224.759088 153.225849 
L 225.844889 107.529491 
L 226.93069 124.254127 
L 228.016491 122.578312 
L 229.102292 79.164748 
L 230.188094 123.772436 
L 231.273895 125.956372 
L 232.359696 138.87232 
L 233.445497 143.317925 
L 234.531298 137.477769 
L 235.617099 137.02523 
L 236.702901 143.50818 
L 237.788702 166.185842 
L 238.874503 143.510589 
L 239.960304 115.331486 
L 241.046105 153.205954 
L 242.131906 164.658527 
L 243.217708 121.701934 
L 244.303509 150.499609 
L 245.38931 116.232381 
L 246.475111 103.027013 
L 247.560912 102.51306 
L 248.646713 120.540801 
L 249.732514 114.008266 
L 250.818316 141.304459 
L 251.904117 119.666064 
L 252.989918 125.936648 
L 254.075719 136.42386 
L 255.16152 125.992409 
L 256.247321 134.896493 
L 257.333123 162.812091 
L 258.418924 130.162857 
L 259.504725 114.589994 
L 260.590526 124.162781 
L 261.676327 118.865398 
L 262.762128 159.648427 
L 263.847929 130.109057 
L 264.933731 119.625977 
L 267.105333 147.801711 
L 268.191134 112.630225 
L 269.276935 103.319375 
L 270.362736 133.634379 
L 271.448538 119.588223 
L 272.534339 134.626669 
L 273.62014 109.734442 
L 274.705941 109.69322 
L 275.791742 99.044434 
L 276.877543 141.646828 
L 277.963344 92.408234 
L 279.049146 132.820909 
L 280.134947 125.816344 
L 281.220748 135.191881 
L 282.306549 105.949466 
L 283.39235 107.994265 
L 284.478151 147.405792 
L 285.563953 137.803522 
L 286.649754 91.753785 
L 287.735555 130.190879 
L 288.821356 133.567201 
L 289.907157 133.581158 
L 290.992958 129.184292 
L 292.07876 133.734612 
L 293.164561 166.013159 
L 294.250362 123.796283 
L 295.336163 124.516627 
L 296.421964 130.917525 
L 297.507765 110.425323 
L 298.593566 124.912372 
L 299.679368 124.104816 
L 300.765169 119.955869 
L 301.85097 109.764996 
L 302.936771 113.620394 
L 304.022572 131.684982 
L 305.108373 116.883905 
L 306.194175 111.56897 
L 308.365777 173.607193 
L 309.451578 142.538995 
L 310.537379 162.993707 
L 311.62318 128.949283 
L 312.708981 145.232312 
L 313.794783 141.336985 
L 314.880584 99.226064 
L 315.966385 139.014681 
L 317.052186 115.369509 
L 318.137987 113.116298 
L 319.223788 113.130472 
L 320.30959 137.023642 
L 322.481192 91.389486 
L 323.566993 148.620442 
L 324.652794 137.444567 
L 325.738595 123.317045 
L 326.824396 107.096058 
L 327.910198 117.498291 
L 328.995999 133.895166 
L 330.0818 101.357722 
L 331.167601 117.954501 
L 332.253402 131.031401 
L 333.339203 90.628406 
L 334.425005 130.808408 
L 335.510806 124.563066 
L 336.596607 121.174296 
L 337.682408 138.586716 
L 338.768209 103.9737 
L 339.85401 129.543849 
L 340.939811 95.384228 
L 342.025613 124.916931 
L 343.111414 109.601607 
L 344.197215 130.988481 
L 345.283016 114.820386 
L 346.368817 114.998504 
L 347.454618 115.031781 
L 348.54042 97.956626 
L 349.626221 118.971143 
L 350.712022 120.597683 
L 351.797823 87.233254 
L 352.883624 111.025907 
L 353.969425 118.993014 
L 355.055227 83.176297 
L 356.141028 110.391144 
L 357.226829 110.223405 
L 358.31263 108.225694 
L 359.398431 114.941164 
L 360.484232 106.091293 
L 361.570033 103.663879 
L 362.655835 125.843101 
L 363.741636 113.38869 
L 364.827437 119.803184 
L 365.913238 136.042961 
L 366.999039 104.194964 
L 368.08484 129.34366 
L 369.170642 93.426846 
L 370.256443 83.883888 
L 371.342244 131.699909 
L 372.428045 139.038427 
L 373.513846 122.994677 
L 374.599647 86.123756 
L 376.77125 125.915689 
L 377.857051 159.720735 
L 378.942852 129.037479 
L 380.028653 113.701199 
L 381.114454 110.496955 
L 382.200255 88.20506 
L 383.286057 113.43491 
L 384.371858 126.823083 
L 385.457659 169.033155 
L 386.54346 120.982833 
L 387.629261 102.060193 
L 388.715062 103.914714 
L 389.800863 96.453329 
L 390.886665 97.034262 
L 391.972466 106.950976 
L 393.058267 132.58838 
L 394.144068 119.911528 
L 395.229869 135.172257 
L 396.31567 97.217517 
L 397.401472 140.584692 
L 398.487273 143.601037 
L 398.487273 143.601037 
" style="fill:none;stroke:#008000;stroke-dasharray:9.6,2.4,1.5,2.4;stroke-dashoffset:0;stroke-width:1.5;"/>
   </g>
   <g id="line2d_30">
    <path clip-path="url(#pd00c9fc7cc)" d="M 73.832727 282.243077 
L 74.918528 270.056413 
L 76.00433 272.07411 
L 77.090131 257.81572 
L 78.175932 261.862123 
L 79.261733 253.548638 
L 80.347534 258.905598 
L 81.433335 249.588151 
L 82.519137 249.577288 
L 83.604938 246.651231 
L 84.690739 237.705671 
L 85.77654 249.699257 
L 86.862341 208.910547 
L 87.948142 232.573638 
L 89.033943 219.208415 
L 90.119745 229.688458 
L 91.205546 206.199837 
L 92.291347 242.092299 
L 93.377148 196.715642 
L 94.462949 177.368142 
L 95.54875 192.489501 
L 96.634552 184.306607 
L 97.720353 184.521062 
L 98.806154 165.858664 
L 99.891955 167.695842 
L 100.977756 151.206903 
L 102.063557 168.174761 
L 103.149358 163.827144 
L 104.23516 181.155077 
L 105.320961 139.397799 
L 106.406762 166.923117 
L 107.492563 118.619744 
L 108.578364 165.471151 
L 109.664165 127.41476 
L 110.749967 148.503399 
L 111.835768 139.972134 
L 112.921569 139.502267 
L 114.00737 131.191954 
L 115.093171 121.536497 
L 116.178972 131.332707 
L 117.264773 135.246821 
L 118.350575 127.078438 
L 119.436376 144.255379 
L 120.522177 155.657907 
L 121.607978 130.415264 
L 122.693779 143.409783 
L 123.77958 159.738675 
L 124.865382 155.655221 
L 125.951183 155.655187 
L 127.036984 134.645578 
L 128.122785 110.736775 
L 129.208586 162.042748 
L 130.294387 154.159343 
L 131.380189 151.571617 
L 132.46599 118.904529 
L 134.637592 176.07251 
L 135.723393 135.237675 
L 136.809194 147.488122 
L 137.894995 106.655598 
L 138.980797 143.407212 
L 140.066598 122.991417 
L 141.152399 135.2378 
L 142.2382 98.486446 
L 143.324001 143.404732 
L 145.495604 118.903738 
L 146.581405 127.070704 
L 147.667206 139.321155 
L 148.753007 106.653287 
L 149.838808 90.319353 
L 152.01041 114.820254 
L 153.096212 147.488121 
L 154.182013 90.319352 
L 155.267814 94.402835 
L 156.353615 118.903736 
L 157.439416 102.569802 
L 158.525217 118.903736 
L 159.611019 114.820253 
L 160.69682 114.820253 
L 161.782621 110.736769 
L 162.868422 102.569802 
L 163.954223 143.404637 
L 165.040024 122.98722 
L 166.125825 139.321154 
L 167.211627 114.820253 
L 168.297428 147.488121 
L 169.383229 114.820253 
L 170.46903 139.321154 
L 171.554831 114.820253 
L 172.640632 114.820253 
L 173.726434 98.486319 
L 174.812235 127.070703 
L 175.898036 118.903736 
L 176.983837 131.154187 
L 178.069638 94.402835 
L 179.155439 118.903736 
L 180.24124 98.486319 
L 181.327042 155.655088 
L 182.412843 135.23767 
L 183.498644 102.569802 
L 184.584445 122.98722 
L 186.756047 122.98722 
L 187.841849 110.736769 
L 188.92765 155.655088 
L 190.013451 53.568 
L 191.099252 110.736769 
L 192.185053 139.321154 
L 193.270854 159.738571 
L 194.356656 106.653286 
L 195.442457 127.070703 
L 196.528258 127.070703 
L 197.614059 114.820253 
L 198.69986 139.321154 
L 199.785661 106.653286 
L 200.871462 122.98722 
L 201.957264 98.486319 
L 203.043065 139.321154 
L 204.128866 110.736769 
L 205.214667 102.569802 
L 206.300468 114.820253 
L 207.386269 131.154187 
L 209.557872 114.820253 
L 210.643673 73.985418 
L 211.729474 98.486319 
L 213.901076 157.266169 
L 214.986877 131.471291 
L 216.072679 135.387735 
L 217.15848 155.703214 
L 218.244281 102.569852 
L 219.330082 131.154232 
L 220.415883 106.653331 
L 221.501684 114.820253 
L 222.587486 139.321154 
L 223.673287 86.235868 
L 224.759088 147.488121 
L 225.844889 98.486319 
L 226.93069 118.903736 
L 228.016491 118.903736 
L 229.102292 78.068901 
L 230.188094 118.903736 
L 231.273895 118.903736 
L 232.359696 131.154187 
L 233.445497 135.23767 
L 234.531298 131.154187 
L 235.617099 131.154187 
L 236.702901 139.321154 
L 237.788702 163.822055 
L 238.874503 135.23767 
L 239.960304 110.736769 
L 241.046105 151.571604 
L 242.131906 163.822055 
L 243.217708 118.903736 
L 244.303509 147.488121 
L 245.38931 110.736769 
L 246.475111 98.486319 
L 247.560912 98.486319 
L 248.646713 114.820253 
L 249.732514 110.736769 
L 250.818316 139.321154 
L 251.904117 114.820253 
L 252.989918 118.903736 
L 254.075719 127.070703 
L 255.16152 114.820253 
L 256.247321 122.98722 
L 257.333123 151.571604 
L 258.418924 118.903736 
L 259.504725 102.569802 
L 260.590526 114.820253 
L 261.676327 110.736769 
L 262.762128 151.571604 
L 263.847929 122.98722 
L 264.933731 110.736769 
L 267.105333 143.404637 
L 268.191134 106.653286 
L 269.276935 98.486319 
L 270.362736 131.154187 
L 271.448538 114.820253 
L 272.534339 131.154187 
L 273.62014 106.653286 
L 274.705941 106.653286 
L 275.791742 94.402835 
L 276.877543 139.321154 
L 277.963344 90.319352 
L 279.049146 131.154187 
L 280.134947 122.98722 
L 281.220748 131.154187 
L 282.306549 102.569802 
L 283.39235 106.653286 
L 284.478151 143.404637 
L 285.563953 135.23767 
L 286.649754 90.319352 
L 287.735555 127.070703 
L 288.821356 131.154187 
L 289.907157 131.154187 
L 290.992958 127.070703 
L 292.07876 131.154187 
L 293.164561 163.822055 
L 294.250362 122.98722 
L 295.336163 122.98722 
L 296.421964 127.070703 
L 297.507765 106.653286 
L 298.593566 122.98722 
L 300.765169 114.820253 
L 301.85097 106.653286 
L 302.936771 110.736769 
L 304.022572 127.070703 
L 305.108373 110.736769 
L 306.194175 106.653286 
L 307.279976 139.321154 
L 308.365777 167.905539 
L 309.451578 122.987233 
L 310.537379 151.571612 
L 311.62318 110.73677 
L 312.708981 135.23767 
L 313.794783 131.154187 
L 314.880584 90.319352 
L 315.966385 135.23767 
L 317.052186 110.736769 
L 319.223788 110.736769 
L 320.30959 135.23767 
L 321.395391 110.736769 
L 322.481192 90.319352 
L 323.566993 147.488121 
L 324.652794 135.23767 
L 325.738595 118.903736 
L 326.824396 106.653286 
L 327.910198 114.820253 
L 328.995999 131.154187 
L 330.0818 98.486319 
L 331.167601 118.903736 
L 332.253402 131.154187 
L 333.339203 90.319352 
L 334.425005 131.154187 
L 335.510806 122.98722 
L 336.596607 118.903736 
L 337.682408 135.23767 
L 338.768209 102.569802 
L 339.85401 127.070703 
L 340.939811 90.319352 
L 342.025613 122.98722 
L 343.111414 110.736769 
L 344.197215 131.154187 
L 345.283016 114.820253 
L 346.368817 114.820253 
L 347.454618 110.736769 
L 348.54042 94.402835 
L 349.626221 114.820253 
L 350.712022 118.903736 
L 351.797823 86.235868 
L 352.883624 110.736769 
L 353.969425 118.903736 
L 355.055227 82.152385 
L 356.141028 110.736769 
L 357.226829 110.736769 
L 358.31263 106.653286 
L 359.398431 114.820253 
L 360.484232 106.653286 
L 361.570033 102.569802 
L 362.655835 127.070703 
L 363.741636 110.736769 
L 364.827437 118.903736 
L 365.913238 135.23767 
L 366.999039 102.569802 
L 368.08484 127.070703 
L 369.170642 94.402835 
L 370.256443 82.152385 
L 371.342244 131.154187 
L 372.428045 139.321154 
L 373.513846 122.98722 
L 374.599647 86.235868 
L 376.77125 127.070703 
L 377.857051 159.738571 
L 378.942852 131.154187 
L 380.028653 114.820253 
L 381.114454 110.736769 
L 382.200255 86.235868 
L 383.286057 114.820253 
L 384.371858 127.070703 
L 385.457659 167.905539 
L 386.54346 118.903736 
L 387.629261 102.569802 
L 388.715062 106.653286 
L 389.800863 98.486319 
L 390.886665 98.486319 
L 391.972466 106.653286 
L 393.058267 127.070703 
L 394.144068 114.820253 
L 395.229869 135.23767 
L 396.31567 94.402835 
L 397.401472 139.321154 
L 398.487273 143.404637 
L 398.487273 143.404637 
" style="fill:none;stroke:#ff0000;stroke-linecap:square;stroke-width:1.5;"/>
   </g>
   <g id="patch_3">
    <path d="M 57.6 307.584 
L 57.6 41.472 
" style="fill:none;stroke:#000000;stroke-linecap:square;stroke-linejoin:miter;stroke-width:0.8;"/>
   </g>
   <g id="patch_4">
    <path d="M 414.72 307.584 
L 414.72 41.472 
" style="fill:none;stroke:#000000;stroke-linecap:square;stroke-linejoin:miter;stroke-width:0.8;"/>
   </g>
   <g id="patch_5">
    <path d="M 57.6 307.584 
L 414.72 307.584 
" style="fill:none;stroke:#000000;stroke-linecap:square;stroke-linejoin:miter;stroke-width:0.8;"/>
   </g>
   <g id="patch_6">
    <path d="M 57.6 41.472 
L 414.72 41.472 
" style="fill:none;stroke:#000000;stroke-linecap:square;stroke-linejoin:miter;stroke-width:0.8;"/>
   </g>
   <g id="text_16">
    <!-- Population's average and best fitness -->
    <defs>
     <path d="M 19.671875 64.796875 
L 19.671875 37.40625 
L 32.078125 37.40625 
Q 38.96875 37.40625 42.71875 40.96875 
Q 46.484375 44.53125 46.484375 51.125 
Q 46.484375 57.671875 42.71875 61.234375 
Q 38.96875 64.796875 32.078125 64.796875 
z
M 9.8125 72.90625 
L 32.078125 72.90625 
Q 44.34375 72.90625 50.609375 67.359375 
Q 56.890625 61.8125 56.890625 51.125 
Q 56.890625 40.328125 50.609375 34.8125 
Q 44.34375 29.296875 32.078125 29.296875 
L 19.671875 29.296875 
L 19.671875 0 
L 9.8125 0 
z
" id="DejaVuSans-80"/>
     <path d="M 18.109375 8.203125 
L 18.109375 -20.796875 
L 9.078125 -20.796875 
L 9.078125 54.6875 
L 18.109375 54.6875 
L 18.109375 46.390625 
Q 20.953125 51.265625 25.265625 53.625 
Q 29.59375 56 35.59375 56 
Q 45.5625 56 51.78125 48.09375 
Q 58.015625 40.1875 58.015625 27.296875 
Q 58.015625 14.40625 51.78125 6.484375 
Q 45.5625 -1.421875 35.59375 -1.421875 
Q 29.59375 -1.421875 25.265625 0.953125 
Q 20.953125 3.328125 18.109375 8.203125 
z
M 48.6875 27.296875 
Q 48.6875 37.203125 44.609375 42.84375 
Q 40.53125 48.484375 33.40625 48.484375 
Q 26.265625 48.484375 22.1875 42.84375 
Q 18.109375 37.203125 18.109375 27.296875 
Q 18.109375 17.390625 22.1875 11.75 
Q 26.265625 6.109375 33.40625 6.109375 
Q 40.53125 6.109375 44.609375 11.75 
Q 48.6875 17.390625 48.6875 27.296875 
z
" id="DejaVuSans-112"/>
     <path d="M 8.5 21.578125 
L 8.5 54.6875 
L 17.484375 54.6875 
L 17.484375 21.921875 
Q 17.484375 14.15625 20.5 10.265625 
Q 23.53125 6.390625 29.59375 6.390625 
Q 36.859375 6.390625 41.078125 11.03125 
Q 45.3125 15.671875 45.3125 23.6875 
L 45.3125 54.6875 
L 54.296875 54.6875 
L 54.296875 0 
L 45.3125 0 
L 45.3125 8.40625 
Q 42.046875 3.421875 37.71875 1 
Q 33.40625 -1.421875 27.6875 -1.421875 
Q 18.265625 -1.421875 13.375 4.4375 
Q 8.5 10.296875 8.5 21.578125 
z
M 31.109375 56 
z
" id="DejaVuSans-117"/>
     <path d="M 9.421875 75.984375 
L 18.40625 75.984375 
L 18.40625 0 
L 9.421875 0 
z
" id="DejaVuSans-108"/>
     <path d="M 17.921875 72.90625 
L 17.921875 45.796875 
L 9.625 45.796875 
L 9.625 72.90625 
z
" id="DejaVuSans-39"/>
     <path id="DejaVuSans-32"/>
     <path d="M 2.984375 54.6875 
L 12.5 54.6875 
L 29.59375 8.796875 
L 46.6875 54.6875 
L 56.203125 54.6875 
L 35.6875 0 
L 23.484375 0 
z
" id="DejaVuSans-118"/>
     <path d="M 45.40625 27.984375 
Q 45.40625 37.75 41.375 43.109375 
Q 37.359375 48.484375 30.078125 48.484375 
Q 22.859375 48.484375 18.828125 43.109375 
Q 14.796875 37.75 14.796875 27.984375 
Q 14.796875 18.265625 18.828125 12.890625 
Q 22.859375 7.515625 30.078125 7.515625 
Q 37.359375 7.515625 41.375 12.890625 
Q 45.40625 18.265625 45.40625 27.984375 
z
M 54.390625 6.78125 
Q 54.390625 -7.171875 48.1875 -13.984375 
Q 42 -20.796875 29.203125 -20.796875 
Q 24.46875 -20.796875 20.265625 -20.09375 
Q 16.0625 -19.390625 12.109375 -17.921875 
L 12.109375 -9.1875 
Q 16.0625 -11.328125 19.921875 -12.34375 
Q 23.78125 -13.375 27.78125 -13.375 
Q 36.625 -13.375 41.015625 -8.765625 
Q 45.40625 -4.15625 45.40625 5.171875 
L 45.40625 9.625 
Q 42.625 4.78125 38.28125 2.390625 
Q 33.9375 0 27.875 0 
Q 17.828125 0 11.671875 7.65625 
Q 5.515625 15.328125 5.515625 27.984375 
Q 5.515625 40.671875 11.671875 48.328125 
Q 17.828125 56 27.875 56 
Q 33.9375 56 38.28125 53.609375 
Q 42.625 51.21875 45.40625 46.390625 
L 45.40625 54.6875 
L 54.390625 54.6875 
z
" id="DejaVuSans-103"/>
     <path d="M 45.40625 46.390625 
L 45.40625 75.984375 
L 54.390625 75.984375 
L 54.390625 0 
L 45.40625 0 
L 45.40625 8.203125 
Q 42.578125 3.328125 38.25 0.953125 
Q 33.9375 -1.421875 27.875 -1.421875 
Q 17.96875 -1.421875 11.734375 6.484375 
Q 5.515625 14.40625 5.515625 27.296875 
Q 5.515625 40.1875 11.734375 48.09375 
Q 17.96875 56 27.875 56 
Q 33.9375 56 38.25 53.625 
Q 42.578125 51.265625 45.40625 46.390625 
z
M 14.796875 27.296875 
Q 14.796875 17.390625 18.875 11.75 
Q 22.953125 6.109375 30.078125 6.109375 
Q 37.203125 6.109375 41.296875 11.75 
Q 45.40625 17.390625 45.40625 27.296875 
Q 45.40625 37.203125 41.296875 42.84375 
Q 37.203125 48.484375 30.078125 48.484375 
Q 22.953125 48.484375 18.875 42.84375 
Q 14.796875 37.203125 14.796875 27.296875 
z
" id="DejaVuSans-100"/>
     <path d="M 48.6875 27.296875 
Q 48.6875 37.203125 44.609375 42.84375 
Q 40.53125 48.484375 33.40625 48.484375 
Q 26.265625 48.484375 22.1875 42.84375 
Q 18.109375 37.203125 18.109375 27.296875 
Q 18.109375 17.390625 22.1875 11.75 
Q 26.265625 6.109375 33.40625 6.109375 
Q 40.53125 6.109375 44.609375 11.75 
Q 48.6875 17.390625 48.6875 27.296875 
z
M 18.109375 46.390625 
Q 20.953125 51.265625 25.265625 53.625 
Q 29.59375 56 35.59375 56 
Q 45.5625 56 51.78125 48.09375 
Q 58.015625 40.1875 58.015625 27.296875 
Q 58.015625 14.40625 51.78125 6.484375 
Q 45.5625 -1.421875 35.59375 -1.421875 
Q 29.59375 -1.421875 25.265625 0.953125 
Q 20.953125 3.328125 18.109375 8.203125 
L 18.109375 0 
L 9.078125 0 
L 9.078125 75.984375 
L 18.109375 75.984375 
z
" id="DejaVuSans-98"/>
     <path d="M 37.109375 75.984375 
L 37.109375 68.5 
L 28.515625 68.5 
Q 23.6875 68.5 21.796875 66.546875 
Q 19.921875 64.59375 19.921875 59.515625 
L 19.921875 54.6875 
L 34.71875 54.6875 
L 34.71875 47.703125 
L 19.921875 47.703125 
L 19.921875 0 
L 10.890625 0 
L 10.890625 47.703125 
L 2.296875 47.703125 
L 2.296875 54.6875 
L 10.890625 54.6875 
L 10.890625 58.5 
Q 10.890625 67.625 15.140625 71.796875 
Q 19.390625 75.984375 28.609375 75.984375 
z
" id="DejaVuSans-102"/>
    </defs>
    <g transform="translate(123.315 35.472)scale(0.12 -0.12)">
     <use xlink:href="#DejaVuSans-80"/>
     <use x="60.255859" xlink:href="#DejaVuSans-111"/>
     <use x="121.4375" xlink:href="#DejaVuSans-112"/>
     <use x="184.914062" xlink:href="#DejaVuSans-117"/>
     <use x="248.292969" xlink:href="#DejaVuSans-108"/>
     <use x="276.076172" xlink:href="#DejaVuSans-97"/>
     <use x="337.355469" xlink:href="#DejaVuSans-116"/>
     <use x="376.564453" xlink:href="#DejaVuSans-105"/>
     <use x="404.347656" xlink:href="#DejaVuSans-111"/>
     <use x="465.529297" xlink:href="#DejaVuSans-110"/>
     <use x="528.908203" xlink:href="#DejaVuSans-39"/>
     <use x="556.398438" xlink:href="#DejaVuSans-115"/>
     <use x="608.498047" xlink:href="#DejaVuSans-32"/>
     <use x="640.285156" xlink:href="#DejaVuSans-97"/>
     <use x="701.564453" xlink:href="#DejaVuSans-118"/>
     <use x="760.744141" xlink:href="#DejaVuSans-101"/>
     <use x="822.267578" xlink:href="#DejaVuSans-114"/>
     <use x="863.380859" xlink:href="#DejaVuSans-97"/>
     <use x="924.660156" xlink:href="#DejaVuSans-103"/>
     <use x="988.136719" xlink:href="#DejaVuSans-101"/>
     <use x="1049.660156" xlink:href="#DejaVuSans-32"/>
     <use x="1081.447266" xlink:href="#DejaVuSans-97"/>
     <use x="1142.726562" xlink:href="#DejaVuSans-110"/>
     <use x="1206.105469" xlink:href="#DejaVuSans-100"/>
     <use x="1269.582031" xlink:href="#DejaVuSans-32"/>
     <use x="1301.369141" xlink:href="#DejaVuSans-98"/>
     <use x="1364.845703" xlink:href="#DejaVuSans-101"/>
     <use x="1426.369141" xlink:href="#DejaVuSans-115"/>
     <use x="1478.46875" xlink:href="#DejaVuSans-116"/>
     <use x="1517.677734" xlink:href="#DejaVuSans-32"/>
     <use x="1549.464844" xlink:href="#DejaVuSans-102"/>
     <use x="1584.669922" xlink:href="#DejaVuSans-105"/>
     <use x="1612.453125" xlink:href="#DejaVuSans-116"/>
     <use x="1651.662109" xlink:href="#DejaVuSans-110"/>
     <use x="1715.041016" xlink:href="#DejaVuSans-101"/>
     <use x="1776.564453" xlink:href="#DejaVuSans-115"/>
     <use x="1828.664062" xlink:href="#DejaVuSans-115"/>
    </g>
   </g>
   <g id="legend_1">
    <g id="patch_7">
     <path d="M 334.779375 302.584 
L 407.72 302.584 
Q 409.72 302.584 409.72 300.584 
L 409.72 242.8715 
Q 409.72 240.8715 407.72 240.8715 
L 334.779375 240.8715 
Q 332.779375 240.8715 332.779375 242.8715 
L 332.779375 300.584 
Q 332.779375 302.584 334.779375 302.584 
z
" style="fill:#ffffff;opacity:0.8;stroke:#cccccc;stroke-linejoin:miter;"/>
    </g>
    <g id="line2d_31">
     <path d="M 336.779375 248.969937 
L 356.779375 248.969937 
" style="fill:none;stroke:#0000ff;stroke-linecap:square;stroke-width:1.5;"/>
    </g>
    <g id="line2d_32"/>
    <g id="text_17">
     <!-- average -->
     <g transform="translate(364.779375 252.469937)scale(0.1 -0.1)">
      <use xlink:href="#DejaVuSans-97"/>
      <use x="61.279297" xlink:href="#DejaVuSans-118"/>
      <use x="120.458984" xlink:href="#DejaVuSans-101"/>
      <use x="181.982422" xlink:href="#DejaVuSans-114"/>
      <use x="223.095703" xlink:href="#DejaVuSans-97"/>
      <use x="284.375" xlink:href="#DejaVuSans-103"/>
      <use x="347.851562" xlink:href="#DejaVuSans-101"/>
     </g>
    </g>
    <g id="line2d_33">
     <path d="M 336.779375 263.648062 
L 356.779375 263.648062 
" style="fill:none;stroke:#008000;stroke-dasharray:9.6,2.4,1.5,2.4;stroke-dashoffset:0;stroke-width:1.5;"/>
    </g>
    <g id="line2d_34"/>
    <g id="text_18">
     <!-- -1 sd -->
     <defs>
      <path d="M 4.890625 31.390625 
L 31.203125 31.390625 
L 31.203125 23.390625 
L 4.890625 23.390625 
z
" id="DejaVuSans-45"/>
     </defs>
     <g transform="translate(364.779375 267.148062)scale(0.1 -0.1)">
      <use xlink:href="#DejaVuSans-45"/>
      <use x="36.083984" xlink:href="#DejaVuSans-49"/>
      <use x="99.707031" xlink:href="#DejaVuSans-32"/>
      <use x="131.494141" xlink:href="#DejaVuSans-115"/>
      <use x="183.59375" xlink:href="#DejaVuSans-100"/>
     </g>
    </g>
    <g id="line2d_35">
     <path d="M 336.779375 278.326187 
L 356.779375 278.326187 
" style="fill:none;stroke:#008000;stroke-dasharray:9.6,2.4,1.5,2.4;stroke-dashoffset:0;stroke-width:1.5;"/>
    </g>
    <g id="line2d_36"/>
    <g id="text_19">
     <!-- +1 sd -->
     <defs>
      <path d="M 46 62.703125 
L 46 35.5 
L 73.1875 35.5 
L 73.1875 27.203125 
L 46 27.203125 
L 46 0 
L 37.796875 0 
L 37.796875 27.203125 
L 10.59375 27.203125 
L 10.59375 35.5 
L 37.796875 35.5 
L 37.796875 62.703125 
z
" id="DejaVuSans-43"/>
     </defs>
     <g transform="translate(364.779375 281.826187)scale(0.1 -0.1)">
      <use xlink:href="#DejaVuSans-43"/>
      <use x="83.789062" xlink:href="#DejaVuSans-49"/>
      <use x="147.412109" xlink:href="#DejaVuSans-32"/>
      <use x="179.199219" xlink:href="#DejaVuSans-115"/>
      <use x="231.298828" xlink:href="#DejaVuSans-100"/>
     </g>
    </g>
    <g id="line2d_37">
     <path d="M 336.779375 293.004312 
L 356.779375 293.004312 
" style="fill:none;stroke:#ff0000;stroke-linecap:square;stroke-width:1.5;"/>
    </g>
    <g id="line2d_38"/>
    <g id="text_20">
     <!-- best -->
     <g transform="translate(364.779375 296.504312)scale(0.1 -0.1)">
      <use xlink:href="#DejaVuSans-98"/>
      <use x="63.476562" xlink:href="#DejaVuSans-101"/>
      <use x="125" xlink:href="#DejaVuSans-115"/>
      <use x="177.099609" xlink:href="#DejaVuSans-116"/>
     </g>
    </g>
   </g>
  </g>
 </g>
 <defs>
  <clipPath id="pd00c9fc7cc">
   <rect height="266.112" width="357.12" x="57.6" y="41.472"/>
  </clipPath>
 </defs>
</svg>
